<?xml version="1.0" standalone="no"?>
<!DOCTYPE svg PUBLIC "-//W3C//DTD SVG 20010904//EN"
 "http://www.w3.org/TR/2001/REC-SVG-20010904/DTD/svg10.dtd">
<svg version="1.0" xmlns="http://www.w3.org/2000/svg"
 width="596.000000pt" height="596.000000pt" viewBox="0 0 596.000000 596.000000"
 preserveAspectRatio="xMidYMid meet">
<metadata>
Created by potrace 1.14, written by Peter Selinger 2001-2017
</metadata>
<g transform="translate(0.000000,596.000000) scale(0.100000,-0.100000)"
fill="#000000" stroke="none">
<path d="M2720 5939 c-36 -4 -85 -10 -110 -13 -149 -18 -309 -51 -461 -96
-225 -66 -438 -157 -637 -271 -114 -65 -292 -184 -329 -218 -12 -12 -25 -21
-28 -21 -4 0 -12 -6 -19 -12 -8 -7 -38 -33 -67 -57 -55 -45 -317 -305 -354
-351 -277 -342 -450 -657 -571 -1040 -22 -71 -71 -266 -80 -320 -3 -14 -9 -51
-15 -83 -26 -148 -34 -269 -33 -497 0 -194 8 -342 20 -378 2 -7 7 -39 10 -70
3 -31 8 -60 10 -63 2 -4 6 -24 10 -45 3 -22 14 -75 25 -119 109 -451 315 -861
611 -1217 66 -79 301 -318 355 -360 12 -9 57 -45 100 -79 300 -238 691 -433
1068 -530 22 -6 56 -15 75 -20 98 -26 280 -55 420 -67 158 -13 620 -5 649 12
3 2 33 7 66 11 64 7 242 42 254 49 4 3 20 7 35 10 74 13 328 99 422 142 29 13
65 29 81 35 23 8 233 119 292 154 96 56 306 208 401 289 19 17 100 96 180 176
117 118 214 231 328 385 19 27 114 177 146 234 72 125 200 406 211 463 2 9 8
25 13 35 8 16 54 165 67 219 35 144 48 212 71 369 18 127 25 526 12 655 -4 36
-10 88 -13 115 -3 28 -7 59 -10 71 -2 12 -7 38 -11 59 -3 21 -12 68 -20 104
-8 36 -17 77 -20 91 -2 14 -18 70 -35 125 -91 302 -216 566 -390 826 -195 292
-505 601 -798 798 -330 222 -732 389 -1096 456 -22 4 -51 9 -65 12 -30 6 -46
8 -125 18 -33 3 -71 9 -85 12 -44 9 -492 10 -560 2z"/>
</g>
</svg>
